# xmcd CD database file
#
# Track frame offsets:
#	150
#	32502
#	102142
#	138702
#	194002
#	231342
#
# Disc length: 3350 seconds
#
# Revision: 0
# Processed by: cddbd v1.5.2PL0 Copyright (c) Steve Scherf et al.
# Submitted via: CDex 1.70beta2
#
DISCID=510d1406
DTITLE=Katsura Yamauchi - Patiruma
DYEAR=2006
DGENRE=Jazz
TTITLE0=Patiruma
TTITLE1=Yuk (Improvisation)
TTITLE2=Chikushi
TTITLE3=Appe (Improvisation)
TTITLE4=Hi,
TTITLE5=Salmo
EXTD=YEAR: 2006
EXTT0=
EXTT1=
EXTT2=
EXTT3=
EXTT4=
EXTT5=
PLAYORDER=
